<svg width="151" height="93" viewBox="0 0 151 93" fill="none" xmlns="http://www.w3.org/2000/svg">
<path d="M0.947821 6.67397C-1.24263 4.07245 0.606766 0.0976436 4.00765 0.0976436H35.4106C35.4106 0.0976436 53.4106 -1.88088 53.4106 11.9743C53.4106 16.2489 48.398 22.4084 45.4707 25.6412C44.8259 26.3532 45.4337 27.6125 46.393 27.5629C51.1513 27.3166 60.4304 27.4677 65.4106 31.7688C69.3875 35.2033 72.798 41.8427 74.413 45.3333C74.7911 46.1504 76.0302 46.1504 76.4083 45.3333C78.0233 41.8427 81.4338 35.2033 85.4106 31.7688C90.4134 27.4483 99.754 27.3153 104.493 27.5662C105.445 27.6167 106.05 26.3777 105.417 25.6643C102.55 22.437 97.5865 16.2559 97.4106 11.9743C96.8414 -1.88088 115.411 0.0976436 115.411 0.0976436H146.814C150.215 0.0976436 152.064 4.07245 149.873 6.67397L78.4705 91.4771C76.8722 93.3753 73.9491 93.3753 72.3508 91.4771L0.947821 6.67397Z" fill="#E6C15A"></path>
</svg>