<svg width="470" height="80" viewBox="0 0 470 80" fill="none" xmlns="http://www.w3.org/2000/svg">
<g clip-path="url(#clip0_292_2956)">
<path fill="#FFFCF5" d="M56.1111 20.5413C59.7701 20.3673 62.6291 20.2849 66.28 20.4397C65.0175 25.5209 59.4782 38.4819 57.2498 43.8567C52.3562 55.6592 47.7735 68.1473 42.8171 79.8342C38.7705 79.8255 24.5153 81.2309 23.0173 77.8118C18.3405 67.1281 13.9947 55.5088 9.47144 44.7473C6.14137 36.8262 2.9816 28.8232 -0.00610352 20.7463C6.45294 20.4724 13.5976 20.5937 20.1082 20.5676C24.4183 30.2743 29.5876 46.7674 33.5886 57.5803C35.4228 53.3628 36.9894 48.2147 38.5623 43.801C41.3437 36.0466 44.216 28.3296 47.1785 20.6526C50.0882 20.5543 53.1835 20.5756 56.1111 20.5413ZM88.9324 19.9055C97.9902 18.261 109.612 21.5551 115.741 28.5266C123.059 36.8524 122.279 45.2763 121.67 55.4749C108.645 55.031 94.1917 55.3146 81.1111 55.3694C81.3002 55.8506 81.4961 56.3288 81.699 56.804C87.3558 70.0055 108.306 64.7183 118.285 60.3899L118.581 60.5598C119.593 62.5978 119.709 72.0685 118.486 73.9504C114.858 76.9633 108.604 78.44 103.873 79.2532C86.3394 82.2128 66.911 74.5687 63.6853 55.3977C60.6947 37.6226 71.0134 22.6787 88.9324 19.9055ZM147.469 19.9543C154.919 18.3398 167.577 20.839 174.796 23.468C175.03 28.8034 174.747 32.6141 175.348 37.9778C173.46 38.0915 170.066 36.5633 168.069 36.2122C163.05 35.3296 144.812 31.137 143.297 38.094C145.935 46.0187 179.718 38.3484 180.005 58.3157C180.247 75.2814 167.464 78.4838 154.025 79.7473C153.7 79.7497 153.375 79.7484 153.051 79.7444C146.965 79.6702 132.154 78.6151 127.07 74.2473C125.126 72.5766 125.774 62.6121 125.834 59.3792C128.571 60.5705 131.772 61.656 134.594 62.595C140.246 64.4761 160.258 68.119 162.553 60.5774C159.756 53.621 126.344 59.2144 126.033 40.8977C125.797 26.9968 135.132 21.1288 147.469 19.9543ZM208.353 1.25415C208.103 6.90292 208.232 15.351 208.111 20.9446C215.854 21.1579 224.008 21.0324 231.767 20.9788L231.909 36.2297C225.941 35.7169 214.575 36.0775 208.151 35.9993C208.542 44.2805 206.989 53.0733 210.261 60.4338C216.354 66.0903 225.143 64.0943 231.933 61.1702C231.865 64.807 231.925 68.6441 231.925 72.2991L231.896 77.0979C220.461 80.6497 204.713 81.0842 195.562 72.2727C187.38 64.3933 189.559 46.5126 189.688 35.8577L183.018 36.2952C182.655 32.1385 182.78 25.4726 182.748 21.0999L189.583 20.9973L189.535 1.64087C193.433 1.36151 199.412 1.45846 203.451 1.37622L208.353 1.25415ZM106.899 44.4905C104.228 36.6618 100.077 34.0133 91.7546 34.4358C85.6608 35.3724 82.4174 38.4501 81.0291 44.3997L96.8738 44.4524L106.899 44.4905Z" fill="#FFFCF5"></path>
<path fill="#E6C15A" fill-rule="evenodd" clip-rule="evenodd" d="M395.077 0.0279357C401.371 0.190023 407.666 0.19756 413.96 0.0503967L413.968 80.0279L395.029 79.9918L395.077 0.0279357ZM454.965 -0.201556C457.41 -0.705919 465.932 -0.146026 468.757 0.0591857C468.979 5.14514 469.026 10.2382 468.901 15.3277C468.066 15.2177 467.223 15.1441 466.38 15.107C461.732 14.8639 450.624 13.7548 450.346 20.4498L450.761 20.8805C453.359 21.4094 465.892 21.0624 469.253 21.0357C469.099 26.1369 469.1 31.2422 469.249 36.3434C464.149 35.7628 455.881 36.2609 450.208 36.0416L450.183 72.9977L450.208 79.818C444.365 79.5829 437.559 79.7744 431.696 79.8619C431.648 65.8507 431.696 49.8796 431.842 35.8688C428.259 36.0578 424.425 36.105 420.818 36.2154C420.504 31.5964 420.641 25.6475 420.843 21.0592L431.357 20.94C433.024 5.03888 440.117 1.08579 454.965 -0.201556ZM291.666 19.6842C299.893 19.3302 308.1 20.6992 315.766 23.7027C315.839 28.0989 315.746 34.8311 316.63 38.8619C306.458 34.4327 296.334 33.9859 285.492 34.8482C283.782 35.9628 283.132 36.3798 282.596 38.2789C285.618 46.1346 320.591 38.1165 320.075 59.3541C319.684 75.3385 305.505 78.9211 292.969 79.65C284.374 80.557 272.888 77.924 265.225 73.8522C264.717 69.6521 264.979 63.5403 265.148 59.276C271.301 62.6134 300.776 70.1661 302.237 60.6334C300.684 53.9904 276.591 57.7413 270.176 50.4C256.627 34.9029 270.6 21.4846 287.784 19.9537C288.405 19.7626 290.911 19.7104 291.666 19.6842ZM352.128 19.9498C375.131 17.2184 390.306 31.9238 386.158 55.2086C377.152 55.4013 368.146 55.482 359.137 55.4518C354.222 55.4566 347.923 55.648 343.15 55.2174C343.271 55.6105 343.396 56.0018 343.533 56.3893C347.665 68.0106 368.425 65.9472 377.455 62.315C379.028 61.6817 380.707 61.1567 382.308 60.5709L383.906 59.9547L384.044 74.2008C378.569 77.0757 372.589 78.8609 366.431 79.4576C313.663 84.8568 314.378 23.5759 352.128 19.9498ZM371.6 44.5426C367.787 35.9741 363.651 33.6557 354.093 34.4508C347.71 35.6901 344.962 38.2499 343.118 44.4273L361.251 44.4684C364.668 44.4817 368.191 44.4511 371.6 44.5426Z" fill="#E6C15A"></path>
</g>
<defs>
<clipPath id="clip0_292_2956">
<rect width="469.268" height="80" fill="white"></rect>
</clipPath>
</defs>
</svg>